<svg width="28" height="28" viewBox="0 0 28 28" fill="none" xmlns="http://www.w3.org/2000/svg">
<path fill-rule="evenodd" clip-rule="evenodd" d="M12.2411 12.949V15.0023C12.5706 15.1734 12.9602 15.3017 13.4101 15.3873C13.8599 15.4729 14.3341 15.5156 14.8325 15.5156C15.3182 15.5156 15.7797 15.4686 16.2168 15.3745C16.654 15.2804 17.0373 15.1253 17.3668 14.9093C17.6963 14.6932 17.957 14.4109 18.1492 14.0623C18.3414 13.7137 18.4375 13.2827 18.4375 12.7694C18.4375 12.3972 18.3825 12.0711 18.2728 11.7909C18.163 11.5107 18.0045 11.2615 17.7977 11.0433C17.5906 10.8252 17.3425 10.6295 17.0531 10.4562C16.7638 10.283 16.4375 10.1194 16.0743 9.96537C15.8082 9.85416 15.5695 9.74615 15.3583 9.64135C15.1471 9.53655 14.9676 9.42961 14.8198 9.32053C14.672 9.21144 14.5579 9.09594 14.4777 8.97403C14.3974 8.85213 14.3573 8.71417 14.3573 8.56018C14.3573 8.419 14.3932 8.29176 14.465 8.17839C14.5368 8.06504 14.6382 7.96772 14.7691 7.88644C14.9 7.80516 15.0606 7.74206 15.2506 7.69716C15.4407 7.65224 15.6519 7.62978 15.8842 7.62978C16.0531 7.62978 16.2316 7.64261 16.4196 7.66829C16.6075 7.69395 16.7965 7.73352 16.9866 7.78699C17.1767 7.84045 17.3614 7.90783 17.5411 7.98911C17.7205 8.07039 17.8863 8.16449 18.0383 8.27143V6.3529C17.7301 6.23313 17.3931 6.14437 17.0278 6.08662C16.6624 6.02887 16.2432 6 15.7702 6C15.2886 6 14.8325 6.0524 14.4016 6.1572C13.9708 6.26201 13.5917 6.42563 13.2644 6.64806C12.937 6.8705 12.6783 7.1539 12.4882 7.49825C12.2982 7.8426 12.2031 8.25432 12.2031 8.73341C12.2031 9.34512 12.3774 9.86699 12.7258 10.299C13.0743 10.7311 13.6033 11.0968 14.3129 11.3962C14.5917 11.5117 14.8515 11.6251 15.0922 11.7363C15.333 11.8475 15.541 11.963 15.7163 12.0828C15.8916 12.2026 16.0299 12.3331 16.1313 12.4742C16.2327 12.6154 16.2833 12.7758 16.2833 12.9554C16.2833 13.0881 16.2517 13.211 16.1883 13.3244C16.125 13.4378 16.0289 13.5361 15.9 13.6196C15.7712 13.703 15.6107 13.7682 15.4185 13.8153C15.2263 13.8623 15.0014 13.8858 14.7438 13.8858C14.3045 13.8858 13.8694 13.8078 13.4386 13.6516C13.0078 13.4955 12.6086 13.2613 12.2411 12.949V12.949ZM8.73407 7.84908H11.3828V6.16406H4V7.84908H6.6358V15.3516H8.73407V7.84908Z" fill="#00FF0A"/>
</svg>
